<svg xmlns="http://www.w3.org/2000/svg" xmlns:xlink="http://www.w3.org/1999/xlink" viewBox="0 0 949 450.47"><defs><style>.cls-1{fill:none;}.cls-2{isolation:isolate;}.cls-3{clip-path:url(#clip-path);}.cls-4{fill:url(#linear-gradient);}.cls-5,.cls-6,.cls-7,.cls-8{opacity:0.38;}.cls-5,.cls-6,.cls-7{mix-blend-mode:multiply;}.cls-5{fill:url(#linear-gradient-2);}.cls-6{fill:url(#linear-gradient-3);}.cls-7{fill:url(#linear-gradient-4);}.cls-8{mix-blend-mode:screen;fill:url(#linear-gradient-5);}</style><clipPath id="clip-path" transform="translate(0 0)"><path class="cls-1" d="M938.53,0H10.47C4.7,0,0,3,0,6.64V443.36C0,447,4.7,450,10.47,450H938.53c5.77,0,10.47-3,10.47-6.64V6.64C949,3,944.3,0,938.53,0Z"/></clipPath><linearGradient id="linear-gradient" y1="225.23" x2="949" y2="225.23" gradientUnits="userSpaceOnUse"><stop offset="0" stop-color="#54a6f0"/><stop offset="1" stop-color="#563ae6"/></linearGradient><linearGradient id="linear-gradient-2" x1="519.24" y1="225.23" x2="949" y2="225.23" gradientUnits="userSpaceOnUse"><stop offset="0" stop-color="#c871d8"/><stop offset="1" stop-color="#6b3fdf"/></linearGradient><linearGradient id="linear-gradient-3" x1="0" y1="110.97" x2="251.61" y2="110.97" xlink:href="#linear-gradient-2"/><linearGradient id="linear-gradient-4" x1="7.11" y1="225.23" x2="949" y2="225.23" xlink:href="#linear-gradient-2"/><linearGradient id="linear-gradient-5" x1="0" y1="63.69" x2="136.83" y2="63.69" xlink:href="#linear-gradient-2"/></defs><g class="cls-2"><g id="Camada_1" data-name="Camada 1"><g class="cls-3"><rect class="cls-4" width="949" height="450.47"/><path class="cls-5" d="M949,0V450.47H519.24C802.49,351.8,588.15,118,824.69,0Z" transform="translate(0 0)"/><path class="cls-6" d="M251.61,0C241.27,88.85,139.09,174.58,0,221.94V0Z" transform="translate(0 0)"/><path class="cls-7" d="M949,0V450.47H7.11C487.16,357.8,285,143.06,406.94,0Z" transform="translate(0 0)"/><path class="cls-8" d="M136.83,0C131,50.07,76.13,98.48,0,127.38V0Z" transform="translate(0 0)"/></g></g></g></svg>