<svg width="36" height="29" viewBox="0 0 36 29" fill="none" xmlns="http://www.w3.org/2000/svg">
<path d="M19.125 3.96389C20.5965 2.43908 23.1345 2.00311 26.127 2.29966C28.9035 2.57408 31.7588 3.45709 33.75 4.27593V26.2362C31.6845 25.4616 29.0093 24.7047 26.3542 24.4436C23.8927 24.198 21.2288 24.3573 19.125 25.5324V3.96389ZM18 1.96327C15.7838 0.0888077 12.5708 -0.190039 9.64575 0.0976601C6.23925 0.436259 2.80125 1.58484 0.65925 2.5431C0.46271 2.63102 0.296044 2.77271 0.179147 2.95126C0.0622501 3.12981 5.97857e-05 3.33768 0 3.55004L0 27.8938C5.21145e-05 28.0789 0.0473336 28.2611 0.137513 28.4236C0.227693 28.5861 0.357889 28.7238 0.516174 28.824C0.67446 28.9242 0.855775 28.9837 1.04351 28.9971C1.23125 29.0105 1.41941 28.9774 1.59075 28.9007C3.57525 28.0155 6.7725 26.951 9.87075 26.6434C13.041 26.3291 15.6982 26.8359 17.1225 28.5843C17.2279 28.7135 17.3615 28.8178 17.5134 28.8895C17.6652 28.9611 17.8315 28.9983 18 28.9983C18.1685 28.9983 18.3348 28.9611 18.4866 28.8895C18.6385 28.8178 18.7721 28.7135 18.8775 28.5843C20.3018 26.8359 22.959 26.3291 26.127 26.6434C29.2275 26.951 32.427 28.0155 34.4093 28.9007C34.5806 28.9774 34.7688 29.0105 34.9565 28.9971C35.1442 28.9837 35.3255 28.9242 35.4838 28.824C35.6421 28.7238 35.7723 28.5861 35.8625 28.4236C35.9527 28.2611 35.9999 28.0789 36 27.8938V3.55004C35.9999 3.33768 35.9377 3.12981 35.8209 2.95126C35.704 2.77271 35.5373 2.63102 35.3407 2.5431C33.1987 1.58484 29.7607 0.436259 26.3542 0.0976601C23.4293 -0.192252 20.2162 0.0888077 18 1.96327Z" fill="#9C7FF4"/>
</svg>
