<svg width="38" height="36" viewBox="0 0 38 36" fill="none" xmlns="http://www.w3.org/2000/svg">
<path d="M24.0667 0H0V23.1864H13.9333V36H38V12.8136H24.0667V0ZM10.4741 5.49153L6.49903 16.4212H9.18333L9.82981 14.6441H13.9333V20.7458H2.53333V2.44068H21.5333V12.8136H16.2554L13.5929 5.49153H10.4741ZM13.3492 12.2034H10.7174L12.0333 8.58524L13.3492 12.2034ZM35.4667 15.2542V33.5593H16.4667V15.2542H35.4667Z" fill="#9C7FF4"/>
<path d="M23.8594 26.836C24.0932 27.2047 24.3506 27.5584 24.6301 27.895C23.744 28.3642 22.7376 28.5992 21.6111 28.6V31C23.4552 31 25.1028 30.5194 26.5 29.5882C27.8972 30.5194 29.5448 31 31.3889 31V28.6C30.2647 28.6 29.2584 28.3648 28.37 27.8945C28.6495 27.558 28.9068 27.2045 29.1406 26.836C29.8451 25.7115 30.3633 24.4842 30.6756 23.2H32V20.8H27.7222V19H25.2778V20.8H21V23.2H22.3244C22.6367 24.4842 23.1549 25.7115 23.8594 26.836ZM28.1447 23.2C27.8918 24.0306 27.5297 24.8253 27.0676 25.564C26.8949 25.8364 26.7054 26.0981 26.5 26.3476C26.3096 26.1165 26.1328 25.8748 25.9706 25.6238C25.4897 24.8686 25.1145 24.0534 24.855 23.2H28.1447Z" fill="#9C7FF4"/>
</svg>
